<svg xmlns="http://www.w3.org/2000/svg" width="1536" height="1024" viewBox="0 0 1536 1024"><defs><linearGradient id="base"><stop stop-color="#f4f0e9"/><stop offset="1" stop-color="#ebe5da"/></linearGradient><linearGradient id="blue" x2=".8" y2="1"><stop stop-color="#5478ff"/><stop offset=".45" stop-color="#3154ff"/><stop offset="1" stop-color="#1532aa"/></linearGradient><linearGradient id="orange" x1="0" y1="0" x2=".85" y2="1"><stop stop-color="#ffd1a2"/><stop offset=".25" stop-color="#ffad54"/><stop offset=".7" stop-color="#ff842c"/><stop offset="1" stop-color="#dc510a"/></linearGradient><linearGradient id="paper" x2="0.5" y2="1"><stop stop-color="#fffaf3"/><stop offset="1" stop-color="#dce3f6"/></linearGradient><filter id="shadow" x="-40%" y="-40%" width="180%" height="190%"><feDropShadow dx="12" dy="25" stdDeviation="18" flood-color="#020b36" flood-opacity="0.13"/></filter><pattern id="grid" width="64" height="64" patternUnits="userSpaceOnUse"><path d="M64 0H0V64" fill="none" stroke="#0b225e" stroke-width=".6" opacity=".12"/></pattern></defs><rect width="1536" height="1024" fill="url(#base)"/><rect x="96" y="96" width="1344" height="832" fill="url(#grid)"/><circle cx="1380" cy="70" r="450" fill="#fffaf5" opacity=".08"/><g filter="url(#shadow)"><rect x="248" y="294" width="305" height="460" rx="12" fill="#0b1b8730"/><rect x="230" y="270" width="305" height="460" rx="12" fill="url(#paper)"/><circle cx="382" cy="405" r="60" fill="#3154ff"/><rect x="285" y="535" width="195" height="15" rx="7" fill="#3154ff"/><rect x="313" y="578" width="139" height="10" rx="5" fill="#94a5ec"/><rect x="613" y="294" width="305" height="460" rx="12" fill="#0b1b8730"/><rect x="595" y="270" width="305" height="460" rx="12" fill="url(#paper)"/><circle cx="747" cy="405" r="60" fill="#3154ff"/><rect x="650" y="535" width="195" height="15" rx="7" fill="#3154ff"/><rect x="678" y="578" width="139" height="10" rx="5" fill="#94a5ec"/><rect x="978" y="294" width="305" height="460" rx="12" fill="#0b1b8730"/><rect x="960" y="270" width="305" height="460" rx="12" fill="url(#paper)"/><circle cx="1112" cy="405" r="60" fill="#3154ff"/><rect x="1015" y="535" width="195" height="15" rx="7" fill="#3154ff"/><rect x="1043" y="578" width="139" height="10" rx="5" fill="#94a5ec"/><circle cx="790" cy="540" r="175" fill="#ff8b3230" stroke="#ff8b32" stroke-width="35"/><path d="M915 672L1070 820" fill="none" stroke="#ff8b32" stroke-width="38" stroke-linecap="round" stroke-linejoin="round"/></g><path d="M96 144V96H144M1392 96H1440V144M96 880V928H144M1392 928H1440V880" stroke="#7180a5" fill="none" stroke-width="2"/><text x="110" y="68" font-family="Helvetica,Arial,sans-serif" font-size="14" letter-spacing="4" fill="#4b5a85">COACHING / THE WORK BEHIND IT</text><text x="1420" y="979" text-anchor="end" font-family="Helvetica,Arial,sans-serif" font-size="13" letter-spacing="3" fill="#4b5a85">EDITION 02 / 25</text></svg>