<svg xmlns="http://www.w3.org/2000/svg" width="1536" height="1024" viewBox="0 0 1536 1024"><defs><linearGradient id="base"><stop stop-color="#091749"/><stop offset="1" stop-color="#061036"/></linearGradient><linearGradient id="blue" x2=".8" y2="1"><stop stop-color="#5478ff"/><stop offset=".45" stop-color="#3154ff"/><stop offset="1" stop-color="#1532aa"/></linearGradient><linearGradient id="orange" x1="0" y1="0" x2=".85" y2="1"><stop stop-color="#ffd1a2"/><stop offset=".25" stop-color="#ffad54"/><stop offset=".7" stop-color="#ff842c"/><stop offset="1" stop-color="#dc510a"/></linearGradient><linearGradient id="paper" x2="0.5" y2="1"><stop stop-color="#fffaf3"/><stop offset="1" stop-color="#dce3f6"/></linearGradient><filter id="shadow" x="-40%" y="-40%" width="180%" height="190%"><feDropShadow dx="12" dy="25" stdDeviation="18" flood-color="#020b36" flood-opacity="0.3"/></filter><pattern id="grid" width="64" height="64" patternUnits="userSpaceOnUse"><path d="M64 0H0V64" fill="none" stroke="#94aaff" stroke-width=".6" opacity=".12"/></pattern></defs><rect width="1536" height="1024" fill="url(#base)"/><rect x="96" y="96" width="1344" height="832" fill="url(#grid)"/><circle cx="1380" cy="70" r="450" fill="#3154ff" opacity=".08"/><g filter="url(#shadow)"><path d="M235 520H495M615 520H865M985 520H1310" fill="none" stroke="#3154ff" stroke-width="75" stroke-linecap="round" stroke-linejoin="round"/><path d="M490 520Q555 250 622 520" fill="none" stroke="#ff8b32" stroke-width="36" stroke-linecap="round" stroke-linejoin="round"/><path d="M860 520Q925 740 990 520" fill="none" stroke="#dce4ff" stroke-width="26" stroke-linecap="round" stroke-linejoin="round"/><circle cx="250" cy="520" r="35" fill="url(#orange)"/><circle cx="1300" cy="520" r="35" fill="#dce4ff"/></g><path d="M96 144V96H144M1392 96H1440V144M96 880V928H144M1392 928H1440V880" stroke="#91a4ff" fill="none" stroke-width="2"/><text x="110" y="68" font-family="Helvetica,Arial,sans-serif" font-size="14" letter-spacing="4" fill="#a9b9ff">PERFORMANCE / THE WORK BEHIND IT</text><text x="1420" y="979" text-anchor="end" font-family="Helvetica,Arial,sans-serif" font-size="13" letter-spacing="3" fill="#a9b9ff">EDITION 02 / 03</text></svg>